<?xml version="1.0" encoding="utf-8"?>
<!-- Generator: Adobe Illustrator 15.0.2, SVG Export Plug-In . SVG Version: 6.00 Build 0)  -->
<!DOCTYPE svg PUBLIC "-//W3C//DTD SVG 1.1//EN" "http://www.w3.org/Graphics/SVG/1.1/DTD/svg11.dtd">
<svg version="1.1" id="Layer_1" xmlns="http://www.w3.org/2000/svg" xmlns:xlink="http://www.w3.org/1999/xlink" x="0px" y="0px"
	 width="32px" height="32px" viewBox="0 0 32 32" enable-background="new 0 0 32 32" xml:space="preserve">
<rect fill="none" width="32" height="32"/>
<g>
	<path fill="#64788D" d="M10.331,7.539c1.808,1.587,3.086,3.659,3.818,6.241c0.871,3.076,0.729,5.942-0.445,8.617
		c-0.826,1.878-1.997,3.271-3.497,4.187l1.438-0.414c2.53-0.715,4.446-2.228,5.723-4.521c1.275-2.293,1.558-4.709,0.833-7.248
		c-0.714-2.53-2.218-4.438-4.53-5.723C12.59,8.062,11.473,7.696,10.331,7.539"/>
	<path fill="#64788D" d="M4.653,10.673c1.306,1.146,2.231,2.653,2.756,4.517c0.638,2.227,0.53,4.305-0.321,6.235
		c-0.6,1.359-1.441,2.362-2.525,3.019l1.04-0.293c1.837-0.517,3.216-1.614,4.136-3.267c0.93-1.661,1.132-3.402,0.605-5.248
		c-0.517-1.829-1.606-3.207-3.267-4.136C6.29,11.058,5.477,10.788,4.653,10.673"/>
	<path fill="#64788D" d="M25.89,21.791c-1.608,2.889-4.008,4.788-7.201,5.696l-1.813,0.518c1.891-1.152,3.362-2.904,4.4-5.268
		c1.479-3.366,1.663-6.981,0.562-10.855c-0.919-3.244-2.526-5.858-4.805-7.851c1.438,0.196,2.847,0.664,4.219,1.431
		c2.899,1.619,4.787,4.019,5.693,7.209C27.854,15.864,27.504,18.905,25.89,21.791"/>
</g>
</svg>
