<?xml version="1.0" encoding="utf-8"?>
<!-- Generator: Adobe Illustrator 15.0.2, SVG Export Plug-In . SVG Version: 6.00 Build 0)  -->
<!DOCTYPE svg PUBLIC "-//W3C//DTD SVG 1.1//EN" "http://www.w3.org/Graphics/SVG/1.1/DTD/svg11.dtd">
<svg version="1.1" id="Ebene_1" xmlns="http://www.w3.org/2000/svg" xmlns:xlink="http://www.w3.org/1999/xlink" x="0px" y="0px"
	 width="400px" height="400px" viewBox="0 0 400 400" enable-background="new 0 0 400 400" xml:space="preserve">
<g>
	<g>
		
			<rect x="-0.409" y="421" fill="none" stroke="#1D1D1B" stroke-width="1.1109" stroke-miterlimit="10" width="399.938" height="399.94"/>
		
			<rect x="399.529" y="421" fill="none" stroke="#1D1D1B" stroke-width="1.1109" stroke-miterlimit="10" width="248.738" height="399.94"/>
		
			<rect x="399.529" y="421" fill="none" stroke="#1D1D1B" stroke-width="1.1109" stroke-miterlimit="10" width="248.738" height="248.737"/>
		
			<rect x="497.066" y="669.737" fill="none" stroke="#1D1D1B" stroke-width="1.1109" stroke-miterlimit="10" width="151.201" height="151.203"/>
		
			<rect x="399.529" y="723.402" fill="none" stroke="#1D1D1B" stroke-width="1.1109" stroke-miterlimit="10" width="97.537" height="97.538"/>
		
			<rect x="399.529" y="669.737" fill="none" stroke="#1D1D1B" stroke-width="1.1109" stroke-miterlimit="10" width="53.667" height="53.665"/>
		
			<rect x="453.196" y="669.737" fill="none" stroke="#1D1D1B" stroke-width="1.1109" stroke-miterlimit="10" width="43.87" height="43.873"/>
		<path fill="none" stroke="#F6AA00" stroke-width="1.1109" stroke-miterlimit="10" d="M-0.409,820.94
			C-0.409,599.88,178.468,421,399.529,421"/>
		<path fill="none" stroke="#BD1622" stroke-width="1.1109" stroke-miterlimit="10" d="M648.268,669.737
			C648.268,532.253,537.014,421,399.529,421"/>
		<path fill="none" stroke="#E5332A" stroke-width="1.1109" stroke-miterlimit="10" d="M648.269,669.737
			c0,83.575-67.629,151.203-151.201,151.203"/>
		<path fill="none" stroke="#BD1622" stroke-width="1.1109" stroke-miterlimit="10" d="M399.529,723.402
			c0,53.913,43.626,97.538,97.537,97.538"/>
		<path fill="none" stroke="#BD1622" stroke-width="1.1109" stroke-miterlimit="10" d="M399.529,723.402
			c0-29.661,24.003-53.665,53.667-53.665"/>
		<path fill="none" stroke="#BD1622" stroke-width="1.1109" stroke-miterlimit="10" d="M497.066,713.61
			c0-24.248-19.624-43.873-43.87-43.873"/>
		<path fill="none" stroke="#009EE2" stroke-width="1.1109" stroke-miterlimit="10" d="M399.157,620.971
			c0,110.234-89.36,199.6-199.596,199.6c-110.238,0-199.6-89.364-199.6-199.6s89.362-199.599,199.6-199.599
			C309.797,421.372,399.157,510.734,399.157,620.971z"/>
		<circle fill="none" stroke="#009EE2" stroke-width="1.1109" stroke-miterlimit="10" cx="523.898" cy="545.367" r="124.369"/>
		<circle fill="none" stroke="#009EE2" stroke-width="1.1109" stroke-miterlimit="10" cx="572.667" cy="745.34" r="75.601"/>
		<circle fill="none" stroke="#009EE2" stroke-width="1.1109" stroke-miterlimit="10" cx="448.298" cy="772.172" r="48.769"/>
		<circle fill="none" stroke="#009EE2" stroke-width="1.1109" stroke-miterlimit="10" cx="426.363" cy="696.57" r="26.833"/>
		<circle fill="none" stroke="#009EE2" stroke-width="1.1109" stroke-miterlimit="10" cx="475.131" cy="691.673" r="21.935"/>
		
			<line fill="none" stroke="#99C33A" stroke-width="1.1109" stroke-miterlimit="10" x1="-0.409" y1="821.417" x2="400.009" y2="420.999"/>
		
			<line fill="none" stroke="#99C33A" stroke-width="1.1109" stroke-miterlimit="10" x1="400.009" y1="420.999" x2="647.267" y2="668.258"/>
		
			<line fill="none" stroke="#99C33A" stroke-width="1.1109" stroke-miterlimit="10" x1="648.269" y1="669.737" x2="499.354" y2="818.653"/>
		
			<line fill="none" stroke="#99C33A" stroke-width="1.1109" stroke-miterlimit="10" x1="497.066" y1="820.94" x2="400.729" y2="724.6"/>
		
			<line fill="none" stroke="#99C33A" stroke-width="1.1109" stroke-miterlimit="10" x1="399.529" y1="723.402" x2="453.869" y2="669.062"/>
		
			<line fill="none" stroke="#99C33A" stroke-width="1.1109" stroke-miterlimit="10" x1="453.869" y1="669.062" x2="497.741" y2="712.936"/>
	</g>
	
		<line fill="none" stroke="#99C33A" stroke-width="1.626" stroke-miterlimit="10" x1="399.529" y1="669.737" x2="646.055" y2="423.211"/>
</g>
<g>
	<path fill="#D6002B" d="M-34,280.152C-34,288.745-40.929,295-49.521,295h-13.498C-71.609,295-79,288.745-79,280.152v-80.098
		c0-8.59,7.391-15.055,15.982-15.055h13.498C-40.929,185-34,191.465-34,200.055V280.152z"/>
	<path fill="#D6002B" d="M-97.778,246.111c0,0-8.222,0.055-8.222,5.777c0,5.721,0-4.39,0,32.889c0,37.277,17,36,39,36V340h-23v11h67
		v-11h-22v-19.223c21,0,38,1.168,38-36c0-37.166,0-27.11,0-32.889c0-5.777-8-5.777-8-5.777s-8,0.055-8,5.777c0,5.721,0,8,0,32.889
		C-23,309.667-32.62,307-56.723,307C-80.824,307-90,307.944-90,284.777c0-23.166,0-27.11,0-32.889
		C-90,246.111-97.778,246.111-97.778,246.111z"/>
</g>
<g>
	<path fill="#64788D" d="M114.896,72.688c27.136,23.829,46.333,54.937,57.321,93.698c13.07,46.184,10.928,89.219-6.698,129.373
		c-12.391,28.191-29.976,49.103-52.496,62.853l21.596-6.211c37.985-10.734,66.759-33.441,85.927-67.871
		c19.147-34.426,23.372-70.699,12.511-108.811c-10.738-37.983-33.312-66.627-68.008-85.927
		C148.812,80.543,132.046,75.056,114.896,72.688"/>
	<path fill="#64788D" d="M29.649,119.755c19.613,17.195,33.493,39.838,41.374,67.813c9.578,33.432,7.965,64.625-4.823,93.614
		c-9.003,20.398-21.644,35.463-37.909,45.314l15.616-4.396c27.576-7.762,48.282-24.243,62.094-49.055
		c13.958-24.942,16.99-51.078,9.089-78.786c-7.763-27.452-24.112-48.143-49.05-62.09C54.222,125.519,42.006,121.468,29.649,119.755"
		/>
	<path fill="#64788D" d="M348.477,286.67c-24.144,43.367-60.17,71.889-108.113,85.523l-27.227,7.772
		c28.377-17.301,50.471-43.596,66.057-79.084c22.215-50.545,24.977-104.816,8.447-162.975
		c-13.797-48.703-37.933-87.958-72.145-117.875c21.595,2.936,42.749,9.97,63.355,21.481c43.532,24.307,71.866,60.331,85.474,108.235
		C377.971,197.691,372.71,243.342,348.477,286.67"/>
</g>
</svg>
