<?xml version="1.0" encoding="utf-8"?>
<!-- Generator: Adobe Illustrator 15.0.2, SVG Export Plug-In . SVG Version: 6.00 Build 0)  -->
<!DOCTYPE svg PUBLIC "-//W3C//DTD SVG 1.1//EN" "http://www.w3.org/Graphics/SVG/1.1/DTD/svg11.dtd">
<svg version="1.1" id="Layer_1" xmlns="http://www.w3.org/2000/svg" xmlns:xlink="http://www.w3.org/1999/xlink" x="0px" y="0px"
	 width="26px" height="16px" viewBox="0 0 26 16" enable-background="new 0 0 26 16" xml:space="preserve">
<rect fill="#64788D" width="26" height="16"/>
<path fill="#FFFFFF" d="M17.32,13.443c0,0.805-0.448,1.457-1,1.457H9.68c-0.552,0-1-0.652-1-1.457V2.556
	c0-0.804,0.448-1.456,1-1.456h6.641c0.552,0,1,0.652,1,1.456V13.443z"/>
<path fill="#64788D" d="M16.32,11.771c0,0.623-0.344,1.13-0.77,1.13h-5.103c-0.424,0-0.769-0.507-0.769-1.13v-8.46
	c0-0.625,0.345-1.131,0.769-1.131h5.103c0.426,0,0.77,0.506,0.77,1.131V11.771z"/>
<circle fill="#64788D" cx="13" cy="13.96" r="0.58"/>
</svg>
